<?xml version="1.0" encoding="UTF-8" standalone="no"?>
<!-- Created with Inkscape (http://www.inkscape.org/) -->

<svg
   xmlns:dc="http://purl.org/dc/elements/1.1/"
   xmlns:cc="http://creativecommons.org/ns#"
   xmlns:rdf="http://www.w3.org/1999/02/22-rdf-syntax-ns#"
   xmlns:svg="http://www.w3.org/2000/svg"
   xmlns="http://www.w3.org/2000/svg"
   xmlns:xlink="http://www.w3.org/1999/xlink"
   xmlns:sodipodi="http://sodipodi.sourceforge.net/DTD/sodipodi-0.dtd"
   xmlns:inkscape="http://www.inkscape.org/namespaces/inkscape"
   id="svg1878"
   inkscape:export-ydpi="50.003246"
   inkscape:export-filename="C:\Strumplay\Graphics\arrow.png"
   viewBox="0 0 27.777 36.514"
   sodipodi:version="0.32"
   inkscape:export-xdpi="50.003246"
   version="1.0"
   inkscape:output_extension="org.inkscape.output.svg.inkscape"
   inkscape:version="0.48.5 r10040"
   sodipodi:docname="sinecurve.svg"
   width="100%"
   height="100%">
  <defs
     id="defs3">
    <linearGradient
       id="linearGradient7614"
       y2="541.27002"
       gradientUnits="userSpaceOnUse"
       x2="-171.94"
       gradientTransform="matrix(0,-15.022431,4.2414192,0,-1932.1265,-2458.8867)"
       y1="558.79999"
       x1="-155.74001">
      <stop
         id="stop11464"
         style="stop-color:#808080;stop-opacity:1;"
         offset="0" />
      <stop
         id="stop11466"
         style="stop-color:#ffffff;stop-opacity:1;"
         offset="1" />
    </linearGradient>
    <linearGradient
       id="linearGradient7614-1"
       y2="541.27002"
       gradientUnits="userSpaceOnUse"
       x2="-171.94"
       gradientTransform="matrix(0,-15.022431,4.2414192,0,-1932.1265,-2458.8867)"
       y1="558.79999"
       x1="-155.74001">
      <stop
         id="stop11464-7"
         style="stop-color:#808080;stop-opacity:1;"
         offset="0" />
      <stop
         id="stop11466-4"
         style="stop-color:#ffffff;stop-opacity:1;"
         offset="1" />
    </linearGradient>
    <linearGradient
       y2="541.27002"
       x2="-171.94"
       y1="558.79999"
       x1="-155.74001"
       gradientTransform="matrix(0,-15.022431,4.2414192,0,-2278.215,-2306.683)"
       gradientUnits="userSpaceOnUse"
       id="linearGradient3002"
       xlink:href="#linearGradient7614-1"
       inkscape:collect="always" />
  </defs>
  <sodipodi:namedview
     id="base"
     bordercolor="#666666"
     inkscape:window-x="-8"
     inkscape:window-y="-8"
     pagecolor="#ffffff"
     width="283.23425px"
     inkscape:zoom="12.395604"
     inkscape:pageshadow="2"
     borderopacity="1.0"
     inkscape:current-layer="layer1"
     inkscape:cx="-24.216538"
     inkscape:cy="23.105275"
     inkscape:window-width="1920"
     height="200px"
     inkscape:pageopacity="0.0"
     inkscape:window-height="1017"
     inkscape:document-units="px"
     showgrid="true"
     inkscape:window-maximized="1"
     inkscape:snap-global="true">
    <inkscape:grid
       type="xygrid"
       id="grid2993" />
  </sodipodi:namedview>
  <g
     id="layer1"
     inkscape:label="Layer 1"
     inkscape:groupmode="layer"
     transform="translate(-347.89 -131.64)">
    <path
       style="opacity:0.97000002;color:#000000;fill:#00ffff;fill-opacity:1;stroke:none;stroke-width:0.2499993;marker:none;visibility:visible;display:inline;overflow:visible;enable-background:accumulate"
       d="m 393.04625,144.37275 c -0.55229,0 -1,0.44771 -1,1 0,0.55229 0.44771,1 1,1 0.55229,0 1,-0.44771 1,-1 0,-0.55229 -0.44771,-1 -1,-1 z m 2.09375,0.5 c -0.55229,0 -1,0.44771 -1,1 0,0.55229 0.44771,1 1,1 0.55229,0 1,-0.44771 1,-1 0,-0.55229 -0.44771,-1 -1,-1 z m -4.40625,0.0312 c -0.55229,0 -1,0.44771 -1,1 0,0.55229 0.44771,1 1,1 0.55229,0 1,-0.44771 1,-1 0,-0.55229 -0.44771,-1 -1,-1 z m 5.84375,2.625 c -0.55229,0 -1,0.44771 -1,1 0,0.55229 0.44771,1 1,1 0.55229,0 1,-0.44771 1,-1 0,-0.55229 -0.44771,-1 -1,-1 z m -7.28125,0.0312 c -0.55229,0 -1,0.44771 -1,1 0,0.55229 0.44771,1 1,1 0.55229,0 1,-0.44771 1,-1 0,-0.55229 -0.44771,-1 -1,-1 z m 8.71875,3.5625 c -0.55229,0 -1,0.44771 -1,1 0,0.55229 0.44771,1 1,1 0.55229,0 1,-0.44771 1,-1 0,-0.55229 -0.44771,-1 -1,-1 z m -10.125,0.0312 c -0.55229,0 -1,0.44771 -1,1 0,0.55229 0.44771,1 1,1 0.55229,0 1,-0.44771 1,-1 0,-0.55229 -0.44771,-1 -1,-1 z m 11.5625,4.28125 c -0.55229,0 -1,0.44771 -1,1 0,0.55229 0.44771,1 1,1 0.55229,0 1,-0.44771 1,-1 0,-0.55229 -0.44771,-1 -1,-1 z m -13,0.0312 c -0.55229,0 -1,0.44771 -1,1 0,0.55229 0.44771,1 1,1 0.55229,0 1,-0.44771 1,-1 0,-0.55229 -0.44771,-1 -1,-1 z m 14.40625,4.53125 c -0.55229,0 -1,0.44771 -1,1 0,0.55229 0.44771,1 1,1 0.55229,0 1,-0.44771 1,-1 0,-0.55229 -0.44771,-1 -1,-1 z M 385.015,160.029 c -0.55229,0 -1,0.44771 -1,1 0,0.55229 0.44771,1 1,1 0.55229,0 1,-0.44771 1,-1 0,-0.55229 -0.44771,-1 -1,-1 z m 17.28125,5.65625 c -0.55229,0 -1,0.44771 -1,1 0,0.55229 0.44771,1 1,1 0.55229,0 1,-0.44771 1,-1 0,-0.55229 -0.44771,-1 -1,-1 z m -18.71875,0.0312 c -0.55229,0 -1,0.44771 -1,1 0,0.55229 0.44771,1 1,1 0.55229,0 1,-0.44771 1,-1 0,-0.55229 -0.44771,-1 -1,-1 z m 20.15625,5.96875 c -0.55229,0 -1,0.44771 -1,1 0,0.55229 0.44771,1 1,1 0.55229,0 1,-0.44771 1,-1 0,-0.55229 -0.44771,-1 -1,-1 z m -21.5625,0.0312 c -0.55229,0 -1,0.44771 -1,1 0,0.55229 0.44771,1 1,1 0.55229,0 1,-0.44771 1,-1 0,-0.55229 -0.44771,-1 -1,-1 z"
       id="path3006"
       inkscape:connector-curvature="0" />
    <g
       id="g3091"
       style="fill:#ffffff;fill-opacity:1"
       inkscape:export-xdpi="199.36339"
       inkscape:export-ydpi="199.36339">
      <path
         inkscape:connector-curvature="0"
         id="path3089"
         d="m 307.39,126.06045 c -0.55229,0 -1,0.44771 -1,1 0,0.55229 0.44771,1 1,1 0.55229,0 1,-0.44771 1,-1 0,-0.55229 -0.44771,-1 -1,-1 z"
         style="opacity:0.97000001999999996;color:#000000;fill:#ffffff;fill-opacity:1;stroke:none;stroke-width:0.24999930000000001;marker:none;visibility:visible;display:inline;overflow:visible;enable-background:accumulate" />
      <path
         inkscape:connector-curvature="0"
         id="path3087"
         d="m 313.07304,126.56045 c -0.55229,0 -1,0.44771 -1,1 0,0.55229 0.44771,1 1,1 0.55229,0 1,-0.44771 1,-1 0,-0.55229 -0.44771,-1 -1,-1 z"
         style="opacity:0.97000001999999996;color:#000000;fill:#ffffff;fill-opacity:1;stroke:none;stroke-width:0.24999930000000001;marker:none;visibility:visible;display:inline;overflow:visible;enable-background:accumulate" />
      <path
         inkscape:connector-curvature="0"
         id="path3085"
         d="m 301.70697,126.59165 c -0.55229,0 -1,0.44771 -1,1 0,0.55229 0.44771,1 1,1 0.55229,0 1,-0.44771 1,-1 0,-0.55229 -0.44771,-1 -1,-1 z"
         style="opacity:0.97000001999999996;color:#000000;fill:#ffffff;fill-opacity:1;stroke:none;stroke-width:0.24999930000000001;marker:none;visibility:visible;display:inline;overflow:visible;enable-background:accumulate" />
      <path
         inkscape:connector-curvature="0"
         id="path3083"
         d="m 318.75607,129.21665 c -0.55229,0 -1,0.44771 -1,1 0,0.55229 0.44771,1 1,1 0.55229,0 1,-0.44771 1,-1 0,-0.55229 -0.44771,-1 -1,-1 z"
         style="opacity:0.97000001999999996;color:#000000;fill:#ffffff;fill-opacity:1;stroke:none;stroke-width:0.24999930000000001;marker:none;visibility:visible;display:inline;overflow:visible;enable-background:accumulate" />
      <path
         inkscape:connector-curvature="0"
         id="path3081"
         d="m 296.02393,129.24785 c -0.55229,0 -1,0.44771 -1,1 0,0.55229 0.44771,1 1,1 0.55229,0 1,-0.44771 1,-1 0,-0.55229 -0.44771,-1 -1,-1 z"
         style="opacity:0.97000001999999996;color:#000000;fill:#ffffff;fill-opacity:1;stroke:none;stroke-width:0.24999930000000001;marker:none;visibility:visible;display:inline;overflow:visible;enable-background:accumulate" />
      <path
         inkscape:connector-curvature="0"
         id="path3079"
         d="m 324.43911,132.81035 c -0.55229,0 -1,0.44771 -1,1 0,0.55229 0.44771,1 1,1 0.55229,0 1,-0.44771 1,-1 0,-0.55229 -0.44771,-1 -1,-1 z"
         style="opacity:0.97000001999999996;color:#000000;fill:#ffffff;fill-opacity:1;stroke:none;stroke-width:0.24999930000000001;marker:none;visibility:visible;display:inline;overflow:visible;enable-background:accumulate" />
      <path
         inkscape:connector-curvature="0"
         id="path3077"
         d="m 290.34089,132.84155 c -0.55229,0 -1,0.44771 -1,1 0,0.55229 0.44771,1 1,1 0.55229,0 1,-0.44771 1,-1 0,-0.55229 -0.44771,-1 -1,-1 z"
         style="opacity:0.97000001999999996;color:#000000;fill:#ffffff;fill-opacity:1;stroke:none;stroke-width:0.24999930000000001;marker:none;visibility:visible;display:inline;overflow:visible;enable-background:accumulate" />
      <path
         inkscape:connector-curvature="0"
         id="path3075"
         d="m 330.12214,137.1228 c -0.55229,0 -1,0.44771 -1,1 0,0.55229 0.44771,1 1,1 0.55229,0 1,-0.44771 1,-1 0,-0.55229 -0.44771,-1 -1,-1 z"
         style="opacity:0.97000001999999996;color:#000000;fill:#ffffff;fill-opacity:1;stroke:none;stroke-width:0.24999930000000001;marker:none;visibility:visible;display:inline;overflow:visible;enable-background:accumulate" />
      <path
         inkscape:connector-curvature="0"
         id="path3073"
         d="m 284.65786,137.154 c -0.55229,0 -1,0.44771 -1,1 0,0.55229 0.44771,1 1,1 0.55229,0 1,-0.44771 1,-1 0,-0.55229 -0.44771,-1 -1,-1 z"
         style="opacity:0.97000001999999996;color:#000000;fill:#ffffff;fill-opacity:1;stroke:none;stroke-width:0.24999930000000001;marker:none;visibility:visible;display:inline;overflow:visible;enable-background:accumulate" />
      <path
         inkscape:connector-curvature="0"
         id="path3071"
         d="m 335.80518,141.68525 c -0.55229,0 -1,0.44771 -1,1 0,0.55229 0.44771,1 1,1 0.55229,0 1,-0.44771 1,-1 0,-0.55229 -0.44771,-1 -1,-1 z"
         style="opacity:0.97000001999999996;color:#000000;fill:#ffffff;fill-opacity:1;stroke:none;stroke-width:0.24999930000000001;marker:none;visibility:visible;display:inline;overflow:visible;enable-background:accumulate" />
      <path
         inkscape:connector-curvature="0"
         id="path3069"
         d="m 278.97482,141.71645 c -0.55229,0 -1,0.44771 -1,1 0,0.55229 0.44771,1 1,1 0.55229,0 1,-0.44771 1,-1 0,-0.55229 -0.44771,-1 -1,-1 z"
         style="opacity:0.97000001999999996;color:#000000;fill:#ffffff;fill-opacity:1;stroke:none;stroke-width:0.24999930000000001;marker:none;visibility:visible;display:inline;overflow:visible;enable-background:accumulate" />
      <path
         inkscape:connector-curvature="0"
         id="path3067"
         d="m 341.48822,147.3727 c -0.55229,0 -1,0.44771 -1,1 0,0.55229 0.44771,1 1,1 0.55229,0 1,-0.44771 1,-1 0,-0.55229 -0.44771,-1 -1,-1 z"
         style="opacity:0.97000001999999996;color:#000000;fill:#ffffff;fill-opacity:1;stroke:none;stroke-width:0.24999930000000001;marker:none;visibility:visible;display:inline;overflow:visible;enable-background:accumulate" />
      <path
         inkscape:connector-curvature="0"
         id="path3065"
         d="m 273.29179,147.4039 c -0.55229,0 -1,0.44771 -1,1 0,0.55229 0.44771,1 1,1 0.55229,0 1,-0.44771 1,-1 0,-0.55229 -0.44771,-1 -1,-1 z"
         style="opacity:0.97000001999999996;color:#000000;fill:#ffffff;fill-opacity:1;stroke:none;stroke-width:0.24999930000000001;marker:none;visibility:visible;display:inline;overflow:visible;enable-background:accumulate" />
      <path
         inkscape:connector-curvature="0"
         id="path3063"
         d="m 347.17125,153.37265 c -0.55229,0 -1,0.44771 -1,1 0,0.55229 0.44771,1 1,1 0.55229,0 1,-0.44771 1,-1 0,-0.55229 -0.44771,-1 -1,-1 z"
         style="opacity:0.97000001999999996;color:#000000;fill:#ffffff;fill-opacity:1;stroke:none;stroke-width:0.24999930000000001;marker:none;visibility:visible;display:inline;overflow:visible;enable-background:accumulate" />
      <path
         id="path3006-7"
         d="m 267.60875,153.40385 c -0.55229,0 -1,0.44771 -1,1 0,0.55229 0.44771,1 1,1 0.55229,0 1,-0.44771 1,-1 0,-0.55229 -0.44771,-1 -1,-1 z"
         style="opacity:0.97000001999999996;color:#000000;fill:#ffffff;fill-opacity:1;stroke:none;stroke-width:0.24999930000000001;marker:none;visibility:visible;display:inline;overflow:visible;enable-background:accumulate" />
    </g>
  </g>
  <metadata
     id="metadata10">
    <rdf:RDF>
      <cc:Work>
        <dc:format>image/svg+xml</dc:format>
        <dc:type
           rdf:resource="http://purl.org/dc/dcmitype/StillImage" />
        <cc:license
           rdf:resource="http://creativecommons.org/licenses/publicdomain/" />
        <dc:publisher>
          <cc:Agent
             rdf:about="http://openclipart.org/">
            <dc:title>Openclipart</dc:title>
          </cc:Agent>
        </dc:publisher>
        <dc:title></dc:title>
        <dc:date>2008-01-29T13:03:25</dc:date>
        <dc:description>Kuba's green arrows set, put into separate files.</dc:description>
        <dc:source>https://openclipart.org/detail/12139/green-arrows-set-by-pitr-12139</dc:source>
        <dc:creator>
          <cc:Agent>
            <dc:title>pitr</dc:title>
          </cc:Agent>
        </dc:creator>
        <dc:subject>
          <rdf:Bag>
            <rdf:li>arrow</rdf:li>
            <rdf:li>collection</rdf:li>
            <rdf:li>glossy</rdf:li>
            <rdf:li>green</rdf:li>
            <rdf:li>icon</rdf:li>
            <rdf:li>remix</rdf:li>
            <rdf:li>set</rdf:li>
          </rdf:Bag>
        </dc:subject>
      </cc:Work>
      <cc:License
         rdf:about="http://creativecommons.org/licenses/publicdomain/">
        <cc:permits
           rdf:resource="http://creativecommons.org/ns#Reproduction" />
        <cc:permits
           rdf:resource="http://creativecommons.org/ns#Distribution" />
        <cc:permits
           rdf:resource="http://creativecommons.org/ns#DerivativeWorks" />
      </cc:License>
    </rdf:RDF>
  </metadata>
</svg>
